<?xml version="1.0" encoding="iso-8859-1"?>
<!-- Generator: Adobe Illustrator 19.0.0, SVG Export Plug-In . SVG Version: 6.00 Build 0)  -->
<svg xmlns="http://www.w3.org/2000/svg" xmlns:xlink="http://www.w3.org/1999/xlink" version="1.1" id="Layer_1" x="0px" y="0px" viewBox="0 0 512 512" style="enable-background:new 0 0 512 512;" xml:space="preserve">
<path style="fill:#00AAF0;" d="M475.919,91.06H243.693c-9.721,0-19.044-3.861-25.917-10.736l-33.509-33.509  c-6.874-6.874-16.196-10.736-25.917-10.736H36.081c-15.182,0-27.49,12.307-27.49,27.49v384.859c0,15.182,12.307,27.49,27.49,27.49  h439.839c15.182,0,27.49-12.307,27.49-27.49V118.549C503.409,103.368,491.102,91.06,475.919,91.06z"/>
<path style="fill:#00C3FF;" d="M475.919,146.04H36.081c-15.182,0-27.49,12.307-27.49,27.49V448.43  c0,15.182,12.307,27.49,27.49,27.49h439.839c15.182,0,27.49-12.307,27.49-27.49V173.53  C503.409,158.348,491.102,146.04,475.919,146.04z"/>
<g>
	<path style="fill:#78D7FF;" d="M462.174,201.02h-18.327c-7.591,0-13.745-6.154-13.745-13.745l0,0   c0-7.591,6.154-13.745,13.745-13.745h18.327c7.591,0,13.745,6.154,13.745,13.745l0,0   C475.919,194.866,469.765,201.02,462.174,201.02z"/>
	<path style="fill:#78D7FF;" d="M388.868,201.02h-82.47c-7.591,0-13.745-6.154-13.745-13.745l0,0   c0-7.591,6.154-13.745,13.745-13.745h82.47c7.591,0,13.745,6.154,13.745,13.745l0,0C402.613,194.866,396.459,201.02,388.868,201.02   z"/>
</g>
<path style="fill:#00AAF0;" d="M45.244,347.633V211.164c0-9.129-6.238-17.59-15.249-19.056  c-11.482-1.868-21.404,6.945-21.404,18.076V448.43c0,15.182,12.307,27.49,27.49,27.49h439.839c15.182,0,27.49-12.307,27.49-27.49  v-9.163H136.877C86.269,439.266,45.244,398.241,45.244,347.633z"/>
<path d="M475.919,82.47H243.693c-7.496,0-14.543-2.919-19.843-8.219L190.34,40.741c-8.546-8.545-19.907-13.251-31.993-13.251H36.081  C16.186,27.49,0,43.676,0,63.57V448.43c0,19.895,16.186,36.081,36.081,36.081h439.839c19.895,0,36.081-16.186,36.081-36.081V118.55  C512,98.656,495.814,82.47,475.919,82.47z M494.819,448.43c0,10.421-8.478,18.899-18.899,18.899H36.081  c-10.421,0-18.899-8.478-18.899-18.899V173.53c0-10.421,8.478-18.899,18.899-18.899h373.406c4.744,0,8.591-3.846,8.591-8.591  s-3.846-8.591-8.591-8.591H36.081c-6.925,0-13.399,1.966-18.899,5.362V63.57c0-10.421,8.478-18.899,18.899-18.899h122.267  c7.496,0,14.543,2.919,19.843,8.219L211.7,86.4c8.545,8.545,19.907,13.251,31.993,13.251h232.227  c10.421,0,18.899,8.478,18.899,18.899v24.261c-5.5-3.396-11.974-5.362-18.899-5.362h-26.728c-4.744,0-8.591,3.846-8.591,8.591  s3.846,8.591,8.591,8.591h26.728c10.421,0,18.899,8.478,18.899,18.899V448.43z"/>
<path d="M466.756,430.676H45.244c-4.744,0-8.591,3.846-8.591,8.591c0,4.744,3.846,8.591,8.591,8.591h421.512  c4.744,0,8.591-3.846,8.591-8.591C475.347,434.522,471.5,430.676,466.756,430.676z"/>
<g>
</g>
<g>
</g>
<g>
</g>
<g>
</g>
<g>
</g>
<g>
</g>
<g>
</g>
<g>
</g>
<g>
</g>
<g>
</g>
<g>
</g>
<g>
</g>
<g>
</g>
<g>
</g>
<g>
</g>
</svg>
